<?xml version="1.0" encoding="UTF-8" standalone="no"?>
<!-- Created with Inkscape (http://www.inkscape.org/) -->

<svg
   xmlns:dc="http://purl.org/dc/elements/1.1/"
   xmlns:cc="http://creativecommons.org/ns#"
   xmlns:rdf="http://www.w3.org/1999/02/22-rdf-syntax-ns#"
   xmlns:svg="http://www.w3.org/2000/svg"
   xmlns="http://www.w3.org/2000/svg"
   xmlns:sodipodi="http://sodipodi.sourceforge.net/DTD/sodipodi-0.dtd"
   xmlns:inkscape="http://www.inkscape.org/namespaces/inkscape"
   width="4500"
   height="920"
   id="svg2"
   version="1.1"
   inkscape:version="0.47 r22583"
   sodipodi:docname="ITC-nombre.pdf">
  <defs
     id="defs4">
    <inkscape:perspective
       sodipodi:type="inkscape:persp3d"
       inkscape:vp_x="0 : 526.18109 : 1"
       inkscape:vp_y="0 : 1000 : 0"
       inkscape:vp_z="744.09448 : 526.18109 : 1"
       inkscape:persp3d-origin="372.04724 : 350.78739 : 1"
       id="perspective2981" />
    <inkscape:perspective
       id="perspective2991"
       inkscape:persp3d-origin="0.5 : 0.33333333 : 1"
       inkscape:vp_z="1 : 0.5 : 1"
       inkscape:vp_y="0 : 1000 : 0"
       inkscape:vp_x="0 : 0.5 : 1"
       sodipodi:type="inkscape:persp3d" />
  </defs>
  <sodipodi:namedview
     id="base"
     pagecolor="#ffffff"
     bordercolor="#666666"
     borderopacity="1.0"
     inkscape:pageopacity="0.0"
     inkscape:pageshadow="2"
     inkscape:zoom="0.228"
     inkscape:cx="2250"
     inkscape:cy="460"
     inkscape:document-units="px"
     inkscape:current-layer="layer1"
     showgrid="false"
     inkscape:window-width="1111"
     inkscape:window-height="766"
     inkscape:window-x="25"
     inkscape:window-y="1"
     inkscape:window-maximized="0" />
  <metadata
     id="metadata7">
    <rdf:RDF>
      <cc:Work
         rdf:about="">
        <dc:format>image/svg+xml</dc:format>
        <dc:type
           rdf:resource="http://purl.org/dc/dcmitype/StillImage" />
        <dc:title></dc:title>
      </cc:Work>
    </rdf:RDF>
  </metadata>
  <g
     inkscape:label="Capa 1"
     inkscape:groupmode="layer"
     id="layer1"
     transform="translate(0,-132.36218)">
    <path
       style="fill:#ffffff;fill-opacity:1;stroke:#000000;stroke-width:6.65227747;stroke-miterlimit:4;stroke-opacity:1;stroke-dasharray:none"
       d="m 286.91452,514.60904 c -59.11338,0 -107.03125,77.49681 -107.03125,173.125 0,95.62819 47.91787,173.15625 107.03125,173.15625 59.11338,0 107.0625,-77.52806 107.0625,-173.15625 0,-95.62819 -47.94912,-173.125 -107.0625,-173.125 z m 1.34375,116.0625 c 19.58384,0 35.4375,22.89744 35.4375,51.15625 0,28.25881 -15.85366,51.1875 -35.4375,51.1875 -19.58384,0 -35.46875,-22.92869 -35.46875,-51.1875 0,-28.25881 15.88491,-51.15625 35.46875,-51.15625 z"
       id="path4805-2"
       inkscape:connector-curvature="0" />
    <rect
       style="fill:#ffffff;fill-opacity:1;stroke:none"
       id="rect3005"
       width="84.879433"
       height="80.146744"
       x="-317.19608"
       y="733.82483"
       ry="23.468769"
       transform="matrix(0.77074778,-0.63714038,0.55982386,0.82861164,0,0)" />
    <rect
       style="fill:#ffffff;fill-opacity:1;stroke:none"
       id="rect3008"
       width="60.27079"
       height="55.282864"
       x="247.42639"
       y="687.05719"
       ry="27.641432" />
    <rect
       style="fill:#ffffff;fill-opacity:1;stroke:none"
       id="rect3010"
       width="47.385311"
       height="73.987595"
       x="154.31841"
       y="603.09375"
       ry="23.692656" />
    <path
       style="fill:#000000"
       d="m 14.008502,1044.1925 c 0,-1.2877 2.90988,-5.8121 6.46642,-10.0542 6.87905,-8.2053 104.768758,-134.87651 107.928718,-139.66196 1.10521,-1.6737 0.29029,-6.09392 -1.99476,-10.81983 l -3.86335,-7.99004 20.06251,-27.12898 c 11.03437,-14.92097 19.76616,-28.62608 19.40395,-30.456 -0.36221,-1.82981 -3.83889,-15.94778 -7.72596,-31.37332 l -7.06741,-28.04631 -29.15585,0 -29.15584,0 0,-20.8405 0,-20.8404 26.10097,-16.21208 26.10097,-16.21208 0,-21.08623 0,-21.08623 -10.53322,-11.18343 c -5.79327,-6.15084 -10.76236,-11.4519 -11.04244,-11.78012 -0.28008,-0.32823 -15.83293,15.90285 -34.56188,36.06892 l -34.052648,36.66578 -12.21356,-1.14329 c -10.54152,-0.98686 -12.13929,-1.72284 -11.67109,-5.37671 0.29836,-2.32844 6.17107,-39.33722 13.05048,-82.24185 6.87942,-42.90463 12.50804,-80.24362 12.50804,-82.97554 0,-2.73194 -1.27669,-5.72887 -2.83707,-6.65986 -6.11938,-3.65106 -7.84892,-9.68884 -4.54483,-15.86577 3.02802,-5.66077 2.66555,-6.64038 -7.91698,-21.39636 -6.18587,-8.62541 -12.79075,-21.11603 -14.93552,-28.24481 -2.92567,-9.72437 -5.21385,-13.36238 -9.56823,-15.21269 -11.15205,-4.73882 -11.7307,-17.42446 -1.03021,-22.58501 4.50811,-2.17414 6.69563,-5.2513 7.83968,-11.02795 2.63502,-13.30488 14.27706,-33.55971 26.39939,-45.92968 12.42109,-12.67484 36.806548,-25.68225 52.548548,-28.02987 8.65901,-1.29133 8.86314,-1.51869 7.49039,-8.34297 -1.14303,-5.68232 0.006,-9.03726 6.04915,-17.65475 4.10318,-5.85161 8.08174,-10.6564 8.84124,-10.67731 0.75948,-0.0209 4.92926,4.96269 9.26616,11.07468 7.37694,10.39631 7.69599,11.54223 4.94895,17.77529 l -2.93634,6.66259 11.82737,3.56515 c 33.4043,10.06912 57.51386,35.94832 67.37134,72.31637 1.81918,6.71168 3.72303,9.08679 8.10615,10.11276 8.3114,1.94546 11.77746,10.18225 7.0914,16.85213 -2.01626,2.86988 -5.48051,5.76408 -7.6983,6.43156 -2.64104,0.79488 -6.08193,7.08475 -9.97244,18.22944 l -5.94008,17.01579 4.74286,3.09819 c 4.91768,3.21235 14.33947,4.04295 20.56958,1.81334 3.13776,-1.12294 3.59009,-7.78218 3.59009,-52.8526 l 0,-51.56779 12.52715,-7.47352 c 8.6752,-5.17549 15.16557,-7.47351 21.10774,-7.47351 4.71933,0 9.55088,-0.88778 10.73676,-1.97281 1.18589,-1.08508 27.59304,-11.56277 58.68257,-23.28378 44.32513,-16.71097 58.87547,-21.31095 67.40928,-21.31095 7.0079,0 11.52917,-1.06521 12.69792,-2.99163 0.99826,-1.64541 12.02845,-6.75013 24.51151,-11.34383 l 22.69651,-8.3522 15.48696,-26.22771 c 8.51785,-14.42525 19.97612,-34.20522 25.46285,-43.95551 l 9.97588,-17.72778 60.78382,-26.34187 c 33.43113,-14.48803 65.5124,-28.24833 71.29178,-30.57846 l 10.50793,-4.23657 21.7757,14.43893 c 11.97662,7.94142 21.80218,15.2608 21.83458,16.26528 0.0324,1.00449 -29.89254,40.05772 -66.49981,86.78498 -36.60726,46.72723 -67.25681,86.07229 -68.11009,87.43345 -0.91094,1.45316 8.8358,-0.1361 23.60989,-3.84987 l 25.16129,-6.32475 12.5874,8.0833 c 17.07011,10.96196 24.61376,17.69862 21.7218,19.39809 -1.29667,0.762 -16.77463,17.5364 -34.3955,37.27645 l -32.03789,35.891 0,11.20571 c 0,9.09471 -0.7202,11.20569 -3.823,11.20569 -2.10262,0 -9.84176,1.57499 -17.19806,3.49998 -13.11669,3.43235 -13.63481,3.86017 -26.81729,22.14423 -7.3932,10.25434 -13.44218,19.32017 -13.44218,20.1463 0,0.82613 -1.39558,3.00582 -3.10132,4.84378 -1.70573,1.83796 -10.00709,18.0758 -18.44749,36.08413 l -15.34616,32.7424 1.54681,21.23362 c 2.4686,33.88738 -1.11339,30.75878 35.21592,30.75878 17.13293,0 31.57635,0.39277 32.09646,0.87293 0.52013,0.48006 0.62252,10.48155 0.22756,22.22537 -0.49037,14.57966 -1.57023,21.38484 -3.40448,21.45427 -1.47749,0.0555 -13.41043,6.9617 -26.51766,15.34612 l -23.83131,15.24439 -0.64102,23.74044 -0.64102,23.74032 19.78481,20.71051 c 10.88165,11.39071 21.78877,22.82562 24.23805,25.41089 3.24109,3.42116 3.80165,5.43767 2.05936,7.40846 -3.02129,3.41773 -9.53621,26.42328 -7.91177,27.93823 2.73929,2.5547 -7.55926,3.71352 -35.98419,4.04917 l -30.02533,0.35441 -3.17614,8.87791 c -2.98477,8.34294 -2.60635,11.34015 6.28055,49.74258 5.2012,22.47564 9.90364,41.54901 10.4499,42.38529 0.54625,0.8363 -3.57285,6.94616 -9.15355,13.57736 l -10.14673,12.05686 -27.95946,-0.48702 c -15.37769,-0.26783 -29.80138,0.17338 -32.05262,0.9803 -3.62633,1.2999 -4.04601,4.02766 -3.67987,23.91713 l 0.4133,22.44996 -9.71254,4.7899 c -8.86532,4.3722 -12.85024,4.8017 -45.68228,4.9239 -19.78335,0.074 -36.99229,-0.4554 -38.24209,-1.1758 -1.24984,-0.7204 -2.2724,-3.6348 -2.2724,-6.4766 l 0,-5.1668 -40.5758,0 c -34.25904,0 -41.04037,-0.5222 -43.5602,-3.3538 -1.64143,-1.84454 -7.13806,-6.01883 -12.21471,-9.2763 l -9.2303,-5.92266 2.68917,-31.47031 c 4.2202,-49.38726 4.93882,-45.22881 -7.81597,-45.22881 -6.52376,0 -13.03339,1.43069 -16.34115,3.59141 -3.02386,1.97533 -40.15128,32.93207 -82.50538,68.79293 -42.354108,35.86084 -77.896958,65.20164 -78.984118,65.20164 -1.08718,0 -1.97668,-1.0536 -1.97668,-2.3414 z m 313.211638,-84.26335 0,-48.50394 11.91566,-8.08167 c 6.55361,-4.44485 12.25611,-8.8123 12.6722,-9.70541 1.87807,-4.031 5.93485,0.11091 25.28893,25.8196 11.36305,15.09394 21.55418,27.95893 22.64699,28.58875 1.09281,0.62991 4.17684,-2.15931 6.8534,-6.19828 l 4.86646,-7.34347 -11.61357,-40.82472 c -6.38745,-22.45364 -11.79101,-41.77728 -12.00794,-42.94145 -0.74108,-3.9774 19.84353,-41.27582 22.7797,-41.27582 1.61082,0 14.23462,3.40865 28.05291,7.57477 13.81827,4.16612 25.39416,7.26183 25.72417,6.87936 1.14996,-1.3329 5.80901,-20.5875 5.80901,-24.00715 0,-1.89471 -10.82623,-13.79857 -24.0583,-26.45315 l -24.05828,-23.00828 0,-26.86479 0,-26.86489 29.73242,-15.98906 29.7324,-15.98915 0,-16.63997 0,-16.63986 -32.3425,0.33312 -32.3425,0.33323 -0.78125,-4.99636 c -0.42969,-2.74795 -3.29659,-14.99773 -6.3709,-27.22171 -3.07433,-12.22398 -5.73396,-23.17794 -5.9103,-24.34213 -0.17635,-1.16419 6.83852,-15.92822 15.58863,-32.80895 23.4938,-45.32434 22.51449,-42.10262 16.65757,-54.79991 -2.74451,-5.94989 -5.75217,-10.81798 -6.68371,-10.81798 -2.7471,0 -24.98313,17.11587 -24.98313,19.23043 0,1.06514 -1.27668,1.96455 -2.83705,1.99867 -3.55473,0.0777 -17.58979,11.82702 -17.58979,14.72506 0,1.18062 -2.04269,2.14656 -4.5393,2.14656 -2.49661,0 -4.53929,-0.76623 -4.53929,-1.70271 0,-0.9365 -7.53726,-5.31884 -16.74945,-9.73856 -14.46171,-6.93825 -18.41423,-7.93442 -28.93803,-7.29329 l -12.18859,0.74254 -0.65576,-18.52117 -0.6558,-18.52118 -11.25986,0 -11.2599,0 0,25.40047 0,25.40048 -9.72468,0 c -9.63209,0 -30.25983,5.74973 -43.45089,12.11144 -10.72515,5.17247 -31.95929,25.16098 -42.00549,39.54142 l -9.15362,13.10278 11.56971,55.43335 c 6.36334,30.48829 10.97586,56.87655 10.25005,58.64056 -1.75133,4.25634 -26.42825,4.65617 -26.42825,0.42819 0,-1.52848 -3.18984,-5.57673 -7.08855,-8.99608 l -7.08855,-6.21693 1.53573,17.99204 c 2.31671,27.1417 7.542,58.10208 12.97581,76.88297 4.69777,16.23701 4.99013,16.65944 8.5068,12.2933 2.003,-2.48687 23.04733,-33.00643 46.76517,-67.82119 23.71784,-34.81477 44.65534,-63.87237 46.52782,-64.57243 12.54362,-4.68957 16.88036,-5.13683 23.7711,-2.45176 11.79375,4.59573 15.67847,15.10615 15.14766,40.98337 -0.40282,19.63707 -0.97968,22.33668 -5.88004,27.51721 -11.86156,12.53965 -28.20296,33.29224 -26.62521,33.81237 0.91951,0.30315 9.02076,-1.1893 18.00271,-3.31661 l 16.33086,-3.86782 11.51498,9.39429 c 6.33322,5.16681 11.20859,10.59842 10.83412,12.07018 -0.37444,1.47176 -30.29975,27.69421 -66.50066,58.27222 -36.20091,30.57799 -66.45593,56.64323 -67.23338,57.92265 -0.77744,1.27951 -2.62381,22.32931 -4.10302,46.77726 -1.47922,24.44795 -3.14652,46.54173 -3.70514,49.09723 -0.75157,3.43821 1.06903,6.12925 7.00187,10.34945 4.40963,3.13678 8.60465,5.15562 9.32227,4.48634 0.71761,-0.66918 7.6088,-16.75673 15.31375,-35.74996 7.70495,-18.99323 14.70652,-35.5671 15.55905,-36.83087 1.35094,-2.00258 14.00883,-0.95053 27.92195,2.32057 1.29085,0.30356 7.83905,18.04411 14.55156,39.42351 16.26477,51.80337 14.66246,48.39687 22.76413,48.39687 l 6.86513,0 0,-48.50395 z m 57.4626,46.17785 c 5.21933,-2.2179 5.52961,-3.4747 6.66309,-26.98803 0.79363,-16.46336 0.3297,-26.11236 -1.39558,-29.0252 -4.68002,-7.90144 -34.33232,-47.41113 -35.61461,-47.45402 -0.69031,-0.0232 -5.66291,2.98116 -11.05024,6.67611 -9.78585,6.71164 -9.79384,6.72818 -8.41065,17.46284 0.76149,5.90965 1.39342,26.69949 1.40426,46.19962 l 0.0197,35.45478 21.45488,0 c 11.80019,0 23.9183,-1.0467 26.92913,-2.3261 z M 219.19851,844.42111 c 52.03779,-50.0421 93.57646,-91.30822 92.30814,-91.70251 -1.2683,-0.39428 -12.80575,1.86252 -25.63877,5.01513 -12.83302,3.15262 -25.85425,6.23077 -28.93607,6.8404 l -5.60331,1.10837 4.24296,-6.03913 c 7.6875,-10.94203 58.67347,-71.84202 62.12745,-74.20789 4.60971,-3.15757 2.42825,-20.64362 -3.5041,-28.0882 -5.64395,-7.0826 -15.88044,-8.29349 -23.40993,-2.76924 -3.05428,2.24094 -15.56262,18.71823 -27.79626,36.61622 -12.23365,17.89808 -33.43783,48.73473 -47.12039,68.52591 -13.68257,19.79116 -28.01097,40.64528 -31.84086,46.34251 l -6.96348,10.35853 8.08188,-1.2232 c 10.90619,-1.65058 11.96332,1.16761 3.99547,10.65151 -6.61105,7.86893 -134.273718,173.08342 -137.098088,177.42538 -2.09942,3.2275 58.231628,-54.10734 167.155358,-158.85379 z m 80.78583,153.32627 c 0,-4.01475 -20.34119,-68.40087 -22.10614,-69.97264 -0.94884,-0.84507 -5.29988,-1.85484 -9.66896,-2.24397 l -7.94377,-0.70752 -14.10203,35.98397 c -7.75615,19.79128 -14.13954,36.69847 -14.1853,37.5716 -0.0459,0.87312 15.23684,1.58751 33.96146,1.58751 22.22895,0 34.04474,-0.77009 34.04474,-2.21895 z m -11.85885,-187.11986 54.99399,-46.46109 -7.26006,-6.98571 c -3.99306,-3.84218 -7.95809,-6.98572 -8.81118,-6.98572 -1.44254,0 -199.97917,189.72288 -230.21532,219.9952 -7.48005,7.48909 20.1271,-14.89512 61.34924,-49.74258 41.22213,-34.84746 99.69663,-84.26651 129.94333,-109.8201 z M 464.67,946.51951 l 6.21371,-6.87935 -24.5907,-0.60479 c -13.52489,-0.33262 -25.67768,-0.20062 -27.0062,0.29316 -1.32853,0.49389 -4.26061,3.86176 -6.51573,7.48414 l -4.10019,6.5861 24.89269,0 24.89271,0 6.21371,-6.87926 z m 7.80771,-16.99196 c 0,-4.37371 -15.87702,-73.88567 -17.40143,-76.18595 -1.46723,-2.214 -54.22182,-1.07143 -56.68717,1.22784 -1.32896,1.23946 15.49185,63.64318 19.64995,72.89973 2.04297,4.54789 3.31787,4.76253 28.28901,4.76253 19.70717,0 26.14964,-0.66615 26.14964,-2.70415 z M 205.82953,896.09634 c 0.84213,-3.57575 1.17862,-6.81446 0.74776,-7.19703 -0.43089,-0.38258 -4.78361,2.54309 -9.67273,6.50152 l -8.88934,7.19705 8.14159,0 c 7.24288,0 8.31059,-0.71773 9.67272,-6.50154 z M 162.714,850.4442 c 20.64137,-26.58576 23.17202,-33.55019 9.05699,-24.92489 -9.26162,5.65959 -40.12728,49.32429 -38.41752,54.34821 1.25624,3.69141 1.79084,3.79959 4.81878,0.97575 1.87318,-1.74696 12.91695,-15.42655 24.54175,-30.39907 z m 296.06596,-9.09174 c 4.70335,-8.19601 2.71375,-9.77969 -21.43013,-17.05716 -13.07878,-3.94229 -24.19247,-6.74917 -24.69713,-6.23753 -0.50463,0.51155 -4.1173,6.88339 -8.02817,14.15956 l -7.1106,13.2294 29.45826,0 c 26.80163,0 29.67015,-0.36915 31.80777,-4.09427 z m 65.7683,-16.9522 c 2.75821,-1.62758 9.06268,-16.61777 9.17553,-21.81677 0.0182,-0.87313 -12.24694,-1.58751 -27.25751,-1.58751 -30.52427,0 -29.24564,-0.68926 -32.95804,17.76599 l -1.53571,7.63441 24.65132,-0.0323 c 13.55823,-0.0172 26.1242,-0.90149 27.92441,-1.96373 z m -345.96634,-20.45813 6.12808,-9.75214 -4.65978,-14.05984 c -7.37906,-22.26462 -11.43123,-43.61455 -14.11834,-74.386 -3.43783,-39.3681 -3.65798,-40.32479 -11.20422,-48.68418 l -6.68772,-7.40856 -0.19538,20.10876 -0.19535,20.10866 -25.96667,15.58539 -25.96665,15.58538 0,14.51448 0,14.51447 28.85324,0.59238 28.85326,0.59237 7.78982,32.21525 c 4.28439,17.71847 8.56647,31.76761 9.51572,31.22044 0.94925,-0.54707 4.48355,-5.38317 7.85399,-10.74686 z m 350.25874,-11.31028 c -0.41609,-1.10776 -8.81789,-10.63294 -18.67063,-21.16707 l -17.9141,-19.15307 -28.28678,0 -28.28676,0 16.44414,17.01193 c 25.16679,26.03577 23.68393,25.32219 52.62148,25.32219 14.73821,0 24.54139,-0.81954 24.09265,-2.01398 z m -254.4172,-37.41426 c 2.87743,-0.71923 13.5085,-11.36276 24.52342,-24.55209 16.21919,-19.42112 19.32924,-24.36853 18.75194,-29.83032 -0.65632,-6.20907 -1.93028,-5.07467 -24.63263,21.93524 -31.164,37.077 -30.15768,35.3255 -18.64273,32.44717 z m 214.79291,-17.9874 c 0.7802,-3.63813 1.41853,-13.1633 1.41853,-21.16706 l 0,-14.55242 -30.64027,0 -30.64026,0 0,21.16707 0,21.16706 29.22173,0 29.22174,0 1.41853,-6.61465 z m 22.79086,-53.655 c 9.81601,-6.37205 18.47028,-12.17594 19.23173,-12.89769 0.76147,-0.72166 -9.33963,-0.98515 -22.44687,-0.58552 l -23.83131,0.72649 -20.99426,11.27184 c -11.54684,6.19948 -20.99426,11.6764 -20.99426,12.171 0,0.49468 11.51725,0.89936 25.59386,0.89936 l 25.59387,0 17.84724,-11.58548 z M 55.633902,676.63942 c 19.65724,-20.09786 58.239178,-62.72409 58.239178,-64.34401 0,-6.63685 11.12208,2.82524 41.41461,35.23333 31.61292,33.82074 35.26285,37.03694 42.03825,37.04239 6.5373,0 7.27722,-0.56038 6.22223,-4.75658 -0.65855,-2.61948 -6.3428,-28.57553 -12.63168,-57.68025 -17.91937,-82.93028 -17.50106,-81.49324 -23.72215,-81.49324 -2.92918,0 -5.65601,1.30138 -6.05961,2.89194 -0.4036,1.59054 -10.54435,10.56654 -22.53499,19.94662 L 116.79859,580.53434 95.16616,560.5877 c -17.626,-16.25241 -22.891228,-19.94664 -28.429108,-19.94664 -8.55598,0 -8.56096,0.017 -20.80216,73.02639 -5.07511,30.26888 -9.82846,58.60634 -10.563,62.97197 -1.29698,7.70848 -1.13584,7.93766 5.58142,7.93766 5.09965,0 8.95674,-2.08543 14.68059,-7.93766 z m 95.238468,-59.53531 -20.87678,-19.89803 15.01726,-16.11143 c 8.25947,-8.86129 16.29009,-16.40376 17.8458,-16.76102 3.83622,-0.88095 4.96436,3.13466 10.91454,38.85011 6.7478,40.50302 5.67418,41.15564 -22.90082,13.92037 z m 14.94888,-16.40753 c -2.26013,-12.37282 -4.468,-22.83054 -4.90638,-23.23938 -0.43841,-0.40886 -5.2933,3.52923 -10.78867,8.75129 l -9.99158,9.49464 14.60688,13.74474 c 8.03377,7.55961 14.73786,13.74474 14.89797,13.74474 0.1601,0 -1.55809,-10.12321 -3.81822,-22.49603 z M 58.146162,630.29529 c 3.72975,-13.85917 12.33189,-60.83456 11.39807,-62.24371 -0.57094,-0.86155 0.74341,-2.21407 2.92079,-3.00561 2.97016,-1.07973 7.486238,2.16878 18.083178,13.00763 7.76839,7.94574 14.15178,15.45721 14.18531,16.69221 0.0908,3.34594 -41.132868,41.14709 -44.872638,41.14709 -2.34947,0 -2.81349,-1.51485 -1.71471,-5.59761 z M 93.93752,593.87092 c -1.84812,-3.93592 -14.73286,-17.36975 -15.75,-16.42117 -1.19087,1.11063 -9.450658,36.16907 -9.617968,40.82313 -0.0493,1.36882 5.78326,-3.25329 12.961028,-10.27134 7.17776,-7.01804 12.76089,-13.37682 12.40694,-14.13062 z m 450.70526,53.13467 -0.67112,-14.28781 -27.8032,-0.5943 -27.80321,-0.59429 0,14.882 0,14.88211 28.47432,0 28.47433,0 -0.67112,-14.28771 z m -66.31153,-40.21744 c -2.6276,-30.80846 0.76713,-28.04636 -34.47022,-28.04636 -16.7168,0 -30.40431,0.71438 -30.41668,1.58752 -0.0113,0.87315 2.20083,11.35084 4.91817,23.28377 l 4.94062,21.69624 28.30388,0 28.30388,0 -1.57965,-18.52117 z m -341.09071,-51.9981 15.42369,-12.63949 -0.67097,-11.86745 -0.67096,-11.86746 -33.47733,-0.58576 -33.47734,-0.58577 0,11.11953 c 0,10.96119 0.23189,11.33721 16.28637,26.41045 8.9575,8.41001 17.38359,14.69795 18.72461,13.9732 1.34103,-0.72479 9.3789,-7.00555 17.86193,-13.95725 z m 340.48317,12.83903 c 0.65579,-1.45525 7.40377,-15.90565 14.99554,-32.11205 7.59175,-16.20638 13.8032,-29.77975 13.8032,-30.16307 0,-0.38329 -13.31961,-0.69689 -29.59914,-0.69689 l -29.59914,0 -14.46869,28.46567 c -21.19524,41.69945 -22.80174,37.15223 13.12547,37.15223 22.29131,0 30.87275,-0.71531 31.74276,-2.64589 z M 205.18983,542.41599 c 5.90931,-6.65 14.33539,-14.64543 18.7246,-17.76768 l 7.98042,-5.67677 0,-18.82414 0,-18.82415 -8.51118,1.19471 c -6.03706,0.84743 -10.82036,0.008 -16.45496,-2.88372 l -7.94376,-4.07842 -6.18209,8.67931 c -4.01051,5.63051 -5.40571,9.40333 -3.97188,10.74054 5.60448,5.22682 -0.62838,22.38164 -8.13194,22.38164 -1.80167,0 -3.27578,1.36648 -3.27578,3.03666 0,2.86257 5.16801,27.7294 8.1671,39.29746 l 1.37191,5.29175 3.74168,-5.23814 c 2.05793,-2.88099 8.57658,-10.67906 14.48588,-17.32905 z m 44.2948,-30.62624 5.10673,-1.27631 0,-72.77949 c 0,-40.02871 -0.60834,-72.77948 -1.35188,-72.77948 -0.74354,0 -4.32347,1.97338 -7.95547,4.38529 l -6.60356,4.38532 0.088,69.69941 c 0.0674,53.29012 0.73806,69.6926 2.84874,69.67051 1.51833,-0.017 5.05862,-0.60327 7.86731,-1.30525 z m -80.57254,-2.14118 c 7.02164,-1.0824 8.51117,-2.18257 8.51117,-6.2865 0,-3.40234 -1.61391,-5.34273 -5.10671,-6.13964 -2.80868,-0.64086 -30.64027,-0.89715 -61.84794,-0.56953 l -56.741248,0.59568 -0.76599,5.0524 c -0.42128,2.77881 0.60006,5.8599 2.26965,6.84688 3.47675,2.05524 100.815378,2.48398 113.681068,0.50071 z m 109.69621,-2.8748 7.75815,0 0,-59.21537 0,-59.21539 -5.63477,1.99797 c -4.68102,1.6598 -5.58055,1.38221 -5.3145,-1.63991 0.17612,-2.00086 0.15843,-9.11487 -0.0395,-15.80896 -0.35555,-12.03772 -0.43408,-12.17106 -7.16845,-12.17106 l -6.80894,0 0,72.67357 c 0,39.97047 0.71265,73.33821 1.58369,74.15053 0.87102,0.81233 2.99723,0.97109 4.7249,0.3528 1.7277,-0.61831 6.63243,-1.12418 10.89941,-1.12418 z m 107.87406,-7.2809 6.58074,-5.16417 -5.05587,-3.30265 c -6.24936,-4.08227 -9.59358,-3.97552 -20.8631,0.66597 l -8.87347,3.65465 7.73865,4.61954 c 9.87675,5.89585 12.43205,5.83677 20.47305,-0.47334 z m 120.04009,-5.36272 c 0,-1.13305 -2.24621,-6.3719 -4.99157,-11.64189 l -4.99156,-9.58179 -20.542,0.0233 c -11.29809,0.0127 -24.26696,0.59782 -28.81972,1.29999 l -8.27773,1.27667 4.60843,10.34191 4.60846,10.3419 29.20285,0 c 17.42033,2e-5 29.20284,-0.83115 29.20284,-2.06006 z m -162.88015,-68.95067 0.60021,-64.66065 21.56167,-9.09498 21.56167,-9.095 0.68061,-13.20546 c 0.65505,-12.7093 0.49548,-13.15068 -4.24702,-11.74687 -15.38724,4.5546 -97.57144,36.84531 -100.09891,39.32948 -3.33207,3.27501 -4.2606,27.29882 -1.05511,27.29882 1.07421,0 9.53303,-3.49378 18.7974,-7.76393 10.79995,-4.97794 17.62873,-7.03236 19.03033,-5.72521 1.29152,1.2045 2.22602,26.03504 2.28376,60.68159 l 0.0978,58.64285 10.09369,0 10.09372,0 0.60021,-64.66064 z m 21.02705,60.63874 11.34825,-4.01845 0.60388,-57.3643 c 0.50074,-47.5647 0.0701,-57.36429 -2.52029,-57.36429 -1.71827,0 -7.86274,-0.60574 -13.65436,-1.34607 l -10.5302,-1.34607 0,62.73056 c 0,34.50176 0.76601,62.72973 1.70223,62.7288 0.93624,-9.5e-4 6.80896,-1.81004 13.05049,-4.02018 z m 160.98864,-7.819 c 4.63652,-6.51252 8.07219,-12.1746 7.6349,-12.58242 -0.43729,-0.40786 -7.08398,0.73589 -14.7704,2.54163 l -13.97532,3.28316 4.84439,9.29927 c 2.66438,5.11458 5.51758,9.29926 6.34043,9.29926 0.82281,0 5.28952,-5.32841 9.926,-11.8409 z m -336.92882,-1.38851 c 6.20411,-10.05252 12.69137,-24.24788 16.9283,-37.04236 l 1.57713,-4.76258 -89.8041,0 -89.804098,0 0.002,4.76258 c 0.002,6.46659 12.12212,29.91136 20.65922,39.96395 l 6.95623,8.19111 63.313548,0 63.31356,0 6.85842,-11.1127 z m 219.78092,5.82368 6.73978,-5.28899 0.34522,-43.39523 0.34521,-43.39523 -14.72485,0 -14.72483,0 -0.70869,43.92166 c -0.70219,43.51689 -0.66038,43.96551 4.53605,48.68422 6.70066,6.08464 9.88504,5.99251 18.19211,-0.52643 z m 111.63026,-34.58902 7.94377,-1.57595 0.65919,-17.37371 c 0.36258,-9.55554 -0.20903,-17.37372 -1.27012,-17.37372 -1.06113,0 -10.03915,1.8043 -19.95121,4.00956 -52.88834,11.76676 -60.70931,13.17798 -62.02882,11.19259 -0.76232,-1.14705 -1.09564,-24.98304 -0.74067,-52.96885 l 0.6454,-50.88334 17.51179,-6.30427 c 9.63148,-3.46735 28.49123,-10.26215 41.91054,-15.09953 l 24.39872,-8.79525 0,-11.63233 c 0,-9.92494 -0.58298,-11.53304 -3.97189,-10.95593 -2.18453,0.37202 -25.66453,8.77279 -52.17775,18.6684 l -48.20588,17.992 -0.024,80.6845 -0.024,80.68449 43.69075,-9.34635 c 24.02991,-5.14049 47.26545,-10.05553 51.63452,-10.92231 z m 0,10.39767 c 18.93893,-5.21639 10.90257,-5.41945 -11.34826,-0.28679 -11.09739,2.55989 -14.65237,4.00033 -10.21341,4.1384 3.74492,0.11642 13.44767,-1.61677 21.56167,-3.85161 z m -204.26846,-42.63027 0,-38.24335 -5.10671,1.46916 c -2.8087,0.80802 -7.91541,2.80171 -11.34825,4.43042 l -6.24154,2.96124 0,32.4018 c 0,17.82098 0.6809,33.03682 1.51311,33.81294 0.83218,0.77612 5.9389,1.41112 11.34826,1.41112 l 9.83513,0 0,-38.24333 z M 576.412,428.63694 c 0.47882,-12.8201 -0.15706,-18.29723 -2.26965,-19.54711 -1.61421,-0.95503 -11.23102,-1.75101 -21.37076,-1.76883 l -18.43585,-0.0324 -0.40356,20.18956 -0.40353,20.18954 21.10905,-0.61 21.10906,-0.61004 0.66524,-17.81072 z m -367.99683,-5.56435 c 0.73918,-1.79649 0.62285,-3.93965 -0.25852,-4.76259 -2.78698,-2.60219 -193.580878,-3.00635 -195.299008,-0.41368 -0.83657,1.26237 -0.95191,3.67838 -0.25632,5.36894 1.07824,2.6205 15.50793,3.07368 97.867288,3.07368 84.97518,0 96.76433,-0.39316 97.94656,-3.26635 z m 262.17674,-6.1035 c 7.0768,-1.57791 13.97086,-3.50524 15.32014,-4.28295 1.61351,-0.92999 2.4532,-14.69732 2.4532,-40.22167 0,-44.33101 1.55243,-41.37731 -21.7473,-41.37731 l -14.56709,0 0,44.45084 c 0,34.18973 0.65491,44.43343 2.83706,44.37543 1.56038,-0.0415 8.62719,-1.36641 15.70399,-2.94434 z m 140.56027,-29.86893 c 15.17756,-16.92456 27.20845,-31.03317 26.73533,-31.35246 -0.47313,-0.31927 -6.08988,-4.08397 -12.48168,-8.36598 l -11.62146,-7.78548 -25.16824,30.14193 -25.16826,30.14194 7.27515,0.70213 c 10.10614,0.97535 13.02178,3.80742 11.45267,11.12438 -0.72723,3.39103 -0.714,6.1655 0.0293,6.1655 0.74338,0 13.76958,-13.84738 28.94714,-30.77196 z m -407.27399,14.36749 c -2.53901,-14.65942 -16.51991,-37.47512 -30.00949,-48.97307 -19.20003,-16.36525 -29.40409,-20.00353 -56.63089,-20.19184 -21.20367,-0.14668 -23.74002,0.30339 -37.62778,6.67618 -25.504768,11.70358 -48.358858,38.61227 -53.189328,62.62578 l -1.56914,7.8006 90.200718,0 90.20071,0 -1.3748,-7.93765 z m 312.57768,3.67174 c 9.83245,-2.31051 22.08856,-4.25799 27.23579,-4.3277 9.2906,-0.12596 9.53405,-0.33733 33.50944,-29.10472 13.28294,-15.93787 23.85206,-29.2812 23.48693,-29.65187 -0.36513,-0.37071 -11.23302,2.13344 -24.15085,5.56473 -12.91779,3.4313 -36.50786,9.44969 -52.42239,13.37421 l -28.93545,7.13548 -0.002,20.63789 c -0.001,11.35084 0.76344,20.62326 1.69967,20.6054 0.93624,-0.017 9.74697,-1.92293 19.57942,-4.23342 z m -100.7194,-38.06821 c 0,-8.14933 -0.38203,-14.81695 -0.84896,-14.81695 -1.8283,0 -23.20654,11.44231 -26.95425,14.42679 -3.94295,3.13995 -5.35991,11.09033 -2.45878,13.79594 0.83219,0.77614 7.98159,1.41116 15.88755,1.41116 l 14.37444,0 0,-14.81694 z M 394.7766,353.84176 c 12.24565,-6.4721 12.63722,-6.9198 6.61528,-7.5634 -3.91756,-0.41871 -12.72287,2.18478 -22.6965,6.71072 l -16.29568,7.39484 9.6804,0.16849 c 6.97104,0.12129 13.32333,-1.7568 22.6965,-6.71072 z m 133.30752,-1.74125 c 9.98646,-2.50385 19.32904,-5.16046 20.7613,-5.9036 4.47952,-2.32423 34.57411,-41.53178 32.43636,-42.25843 -1.96708,-0.66865 -41.97239,12.66163 -49.95342,16.64514 -3.68167,1.83758 -29.34521,34.22795 -29.34521,37.03702 0,0.69795 1.78735,0.76575 3.97189,0.15073 2.18453,-0.61508 12.14262,-3.16695 22.12908,-5.6708 z M 505.2634,339.14159 c 4.36708,-6.04776 7.56863,-11.34241 7.11457,-11.76589 -0.45408,-0.42346 -4.51069,0.66603 -9.01467,2.4211 -7.49495,2.92058 -8.18911,3.91789 -8.18911,11.76589 0,4.71616 0.48354,8.57483 1.07453,8.57483 0.59099,0 4.64761,-4.94816 9.01468,-10.99593 z m -89.52693,-11.22948 0,-13.75859 -11.34826,0 -11.34824,0 0,13.75859 0,13.75858 11.34824,0 11.34826,0 0,-13.75858 z m -287.2535,-10.13955 c 1.69364,-4.50951 1.34431,-7.24929 -1.47727,-11.58616 -5.22194,-8.02625 -7.23402,-7.96596 -12.04232,0.36088 -3.53581,6.12317 -3.78167,8.23443 -1.50223,12.90012 3.63522,7.4408 11.94627,6.51416 15.02182,-1.67484 z m 377.36883,1.57108 c 8.48285,-2.96637 22.85675,-7.9143 31.94197,-10.99537 12.69408,-4.30493 15.66834,-6.04568 12.84624,-7.5186 -6.13112,-3.19992 -23.33084,0.47629 -54.33099,11.61253 -16.22798,5.82961 -29.93099,10.98079 -30.45113,11.44707 -0.52012,0.46628 4.79547,0.84777 11.81241,0.84777 8.12427,0 18.36,-1.95892 28.1815,-5.3934 z m 94.30152,-36.41154 c 8.00597,-10.18666 31.56879,-40.20272 52.36179,-66.70238 L 690.3206,168.04854 675.3733,158.0203 c -8.22101,-5.51552 -16.46,-10.02823 -18.30887,-10.02823 -5.19116,0 -77.88587,107.2708 -74.99835,110.67016 1.26986,1.49496 2.21288,11.73452 2.09558,22.75458 -0.1173,11.02006 0.15771,20.03647 0.61106,20.03647 0.45336,0 7.37464,-8.33454 15.3806,-18.52118 z m -25.54138,-3.70423 0,-13.7586 -19.29203,0 -19.29201,0 0,13.7586 0,13.75858 19.29201,0 19.29203,0 0,-13.75858 z m -68.08949,-11.67025 c 24.27059,-9.12408 26.27786,-9.53574 49.65977,-10.18475 l 13.34541,-0.37042 35.06061,-51.33014 c 19.28333,-28.23157 35.80295,-52.51362 36.71029,-53.9601 0.90733,-1.44648 -8.36391,1.71859 -20.60279,7.0335 -12.23886,5.3149 -39.10463,16.87571 -59.7017,25.69068 -20.59707,8.81496 -38.6522,16.90157 -40.12253,17.97023 -2.65446,1.92933 -43.8545,72.25537 -43.8545,74.85706 0,0.74732 1.27667,0.88493 2.83706,0.30581 1.56038,-0.57912 13.56115,-5.08445 26.66838,-10.01187 z"
       id="path4888"
       inkscape:connector-curvature="0" />
    <path
       style="fill:#ffffff;stroke:none"
       d="m 59.146041,547.77609 5.701443,-32.07663 9.027284,1.0183 1.900481,44.29629 -16.629208,-13.23796 z"
       id="path3012" />
    <path
       style="fill:#ffffff;stroke:none"
       d="m 173.88758,550.20507 -6.23596,-31.5955 -9.14606,2.07866 4.1573,37.41571 11.22472,-7.89887 z"
       id="path3786" />
    <flowRoot
       xml:space="preserve"
       id="flowRoot3809"
       style="font-size:142.96818542px;font-style:normal;font-variant:normal;font-weight:normal;font-stretch:normal;text-align:start;line-height:125%;writing-mode:lr-tb;text-anchor:start;fill:#000000;fill-opacity:1;stroke:none;font-family:Arial;-inkscape-font-specification:Arial"
       transform="matrix(1.6786951,0,0,1.6786951,-170.08906,308.17312)"><flowRegion
         id="flowRegion3811"><rect
           id="rect3813"
           width="2270.7009"
           height="540.35767"
           x="760.15442"
           y="103.01158"
           style="font-size:142.96818542px;font-style:normal;font-variant:normal;font-weight:normal;font-stretch:normal;text-align:start;line-height:125%;writing-mode:lr-tb;text-anchor:start;font-family:Arial;-inkscape-font-specification:Arial" /></flowRegion><flowPara
         id="flowPara3815">Instituto Tecnológico de Celaya</flowPara></flowRoot>  </g>
</svg>
